<svg width="31" height="32" viewBox="0 0 31 32" fill="none" xmlns="http://www.w3.org/2000/svg">
<path d="M26.8941 0.703134C27.3465 0.501709 27.8447 0.427093 28.3327 0.487647C28.8208 0.5482 29.2796 0.741531 29.6575 1.04598C30.0355 1.35042 30.3178 1.75395 30.4728 2.21135C30.6277 2.66875 30.6492 3.16194 30.5349 3.63567L24.3714 29.1419C23.7803 31.5907 20.3671 31.9492 19.3519 29.6691L15.1781 20.2944C15.0163 19.9304 14.7708 19.6093 14.4607 19.3561C14.1505 19.1029 13.784 18.9242 13.3894 18.8339L2.9497 16.4638C0.488764 15.906 0.20832 12.5816 2.5372 11.5447L26.8941 0.703134Z" fill="black"/>
</svg>
